# AST/ASF file generated using VICON BodyLanguage
# -----------------------------------------------
:version 1.10
:name VICON
:units
  mass 1.0
  length 0.45
  angle deg
:documentation
   .ast/.asf automatically generated from VICON data using
   VICON BodyBuilder and BodyLanguage model FoxedUp or BRILLIANT.MOD
:root
   order TX TY TZ RX RY RZ
   axis XYZ
   position 0 0 0  
   orientation 0 -0 0 
:bonedata
  begin
     id 1 
     name lhipjoint
     direction 0.500677 -0.737119 0.453848 
     length 2.34727 
     axis 0 -0 0  XYZ
  end
  begin
     id 2 
     name lfemur
     direction 0.34202 -0.939693 0  
     length 7.53653  
     axis 0 -0 20  XYZ
    dof rx ry rz
    limits (-160.0 20.0)
           (-70.0 70.0)
           (-60.0 70.0)
  end
  begin
     id 3 
     name ltibia
     direction 0.34202 -0.939693 0   
     length 6.85572   
     axis 0 -0 20   XYZ
    dof rx
    limits (-10.0 170.0)
  end
  begin
     id 4 
     name lfoot
     direction 0.155313 -0.426718 0.890949   
     length 2.18324   
     axis -90 -1.13533e-015 20   XYZ
    dof rx rz
    limits (-45.0 90.0)
           (-70.0 20.0)
  end
  begin
     id 5 
     name ltoes
     direction 1.53474e-011 -4.21647e-011 1   
     length 1.06748   
     axis -90 -1.13533e-015 20   XYZ
    dof rx
    limits (-90.0 20.0)
  end
  begin
     id 6 
     name rhipjoint
     direction -0.632471 -0.659587 0.406111   
     length 2.62319  
     axis 0 -0 0  XYZ 
  end
  begin
     id 7 
     name rfemur
     direction -0.34202 -0.939693 0   
     length 7.21735   
     axis 0 -0 -20   XYZ
    dof rx ry rz
    limits (-160.0 20.0)
           (-70.0 70.0)
           (-70.0 60.0)
  end
  begin
     id 8 
     name rtibia
     direction -0.34202 -0.939693 0   
     length 7.02558   
     axis 0 -0 -20   XYZ
    dof rx
    limits (-10.0 170.0)
 end
 begin
     id 9 
     name rfoot
     direction -0.16057 -0.441164 0.882945   
     length 2.10014  
     axis -90 1.13533e-015 -20   XYZ
    dof rx rz
    limits (-45.0 90.0)
           (-20.0 70.0)
  end
  begin
     id 10 
     name rtoes
     direction -1.53553e-011 -4.2192e-011 1   
     length 1.02554   
     axis -90 1.13533e-015 -20   XYZ
    dof rx
    limits (-90.0 20.0)
  end
  begin
     id 11 
     name lowerback
     direction 0.0401429 0.998861 -0.0258085   
     length 1.80848   
     axis 0 -0 0   XYZ
    dof rx ry rz
    limits (-20.0 45.0)
           (-30.0 30.0)
           (-30.0 30.0)
  end
  begin
     id 12 
     name upperback
     direction -0.0130978 0.999914 -0.000352645   
     length 1.8116   
     axis 0 -0 0   XYZ
    dof rx ry rz
    limits (-20.0 45.0)
           (-30.0 30.0)
           (-30.0 30.0)
  end
  begin
     id 13 
     name thorax
     direction -0.0300198 0.999453 0.0138573   
     length 1.81778   
     axis 0 -0 0   XYZ
    dof rx ry rz
    limits (-20.0 45.0)
           (-30.0 30.0)
           (-30.0 30.0)
  end
  begin
     id 14 
     name lowerneck
     direction -0.0401726 0.999191 -0.00173647   
     length 2.10594   
     axis 0 -0 0   XYZ
    dof rx ry rz
    limits (-20.0 45.0)
           (-30.0 30.0)
           (-30.0 30.0)
  end
  begin
     id 15 
     name upperneck
     direction 0.0119835 0.998501 0.0534085   
     length 2.07325   
     axis 0 -0 0   XYZ
    dof rx ry rz
    limits (-20.0 45.0)
           (-30.0 30.0)
           (-30.0 30.0)
  end
  begin
     id 16
     name head
     direction 0.00628309 0.999826 0.0175921  
     length 2.15096  
     axis 0 -0 0   XYZ
    dof rx ry rz
    limits (-20.0 45.0)
           (-30.0 30.0)
           (-30.0 30.0)
  end
  begin
     id 17 
     name lclavicle
     direction 0.895501 0.429681 -0.115981  
     length 4.18092  
     axis 0 -0 0   XYZ
    dof ry rz
    limits (-20.0 10.0)
           (0.0 20.0)
  end
  begin
     id 18 
     name lhumerus
     direction 1 -4.48961e-011 -3.38433e-028   
     length 5.77237   
     axis 180 -30 -90   XYZ
    dof rx ry rz
    limits (-60.0 90.0)
           (-90.0 90.0)
           (-90.0 90.0)
  end
  begin
     id 19
     name lradius
     direction 1 -4.4901e-011 1.11983e-026   
     length 2.91878   
     axis 180 -30 -90   XYZ
    dof rx
    limits (-10.0 170.0)
  end
  begin
     id 20
     name lwrist
     direction 1 -4.48934e-011 1.88176e-026   
     length 1.45939   
     axis -1.23311e-014 90 90   XYZ
    dof ry
    limits (-180.0 0.0)
 end
  begin
     id 21 
     name lhand
     direction 1 -4.4895e-011 3.76352e-026   
     length 1.06566   
     axis -2.40147e-014 90 90   XYZ
    dof rx rz
    limits (-90.0 90.0)
           (-45.0 45.0)
  end
  begin
     id 22 
     name lfingers
     direction 1 -4.49005e-011 7.52705e-026   
     length 0.859162   
     axis -4.80295e-014 90 90   XYZ
    dof rx
    limits (0.0 90.0)
  end
  begin
     id 23
     name lthumb
     direction 0.707107 -6.34885e-011 0.707107   
     length 1.23359   
     axis -90 45 -9.86935e-015   XYZ
    dof rx rz
    limits (-45.0 45.0)
           (-45.0 45.0)
  end
  begin
     id 24 
     name rclavicle
     direction -0.91006 0.40451 -0.0903492   
     length 4.23293  
     axis 0 -0 0   XYZ 
    dof ry rz
    limits (-10.0 20.0)
           (-20.0 0.0)
  end
  begin
     id 25 
     name rhumerus
     direction -1 -4.4897e-011 1.7415e-027  
     length 5.49854   
     axis 180 30 90   XYZ
    dof rx ry rz
    limits (-90.0 60.0)
           (-90.0 90.0)
           (-90.0 90.0)
  end
  begin
     id 26 
     name rradius
     direction -1 -4.48963e-011 1.21259e-026   
     length 3.1186   
     axis 180 30 90   XYZ
    dof rx
    limits (-10.0 170.0)
  end
  begin
     id 27 
     name rwrist
     direction -1 -4.48967e-011 1.88176e-026   
     length 1.5593   
     axis -1.23311e-014 -90 -90   XYZ
    dof ry
    limits (-180.0 0.0)
  end
  begin
     id 28
     name rhand
     direction -1 -4.4895e-011 3.76352e-026   
     length 0.71207   
     axis -2.40147e-014 -90 -90   XYZ
    dof rx rz
    limits (-90.0 90.0)
           (-45.0 45.0)
  end
  begin
     id 29
     name rfingers
     direction -1 -4.49005e-011 7.52705e-026   
     length 0.574089   
     axis -4.80295e-014 -90 -90   XYZ
    dof rx
    limits (0.0 90.0)
  end
  begin
     id 30
     name rthumb
     direction -0.707107 -6.34982e-011 0.707107   
     length 0.824281   
     axis -90 -45 9.86935e-015   XYZ
    dof rx rz
    limits (-45.0 45.0)
           (-45.0 45.0)
  end
:hierarchy
  begin
    root lhipjoint rhipjoint lowerback
    lhipjoint lfemur
    lfemur ltibia
    ltibia lfoot
    lfoot ltoes
    rhipjoint rfemur
    rfemur rtibia
    rtibia rfoot
    rfoot rtoes
    lowerback upperback
    upperback thorax
    thorax lowerneck lclavicle rclavicle
    lowerneck upperneck
    upperneck head
    lclavicle lhumerus
    lhumerus lradius
    lradius lwrist
    lwrist lhand lthumb
    lhand lfingers
    rclavicle rhumerus
    rhumerus rradius
    rradius rwrist
    rwrist rhand rthumb
    rhand rfingers
  end

#!OML:ASF C:\ViconDB\ViconDB\414\Spring2016\042216\male.ASF
:FULLY-SPECIFIED
:DEGREES
321
root -8.6619 17.4178 7.26134 -6.56366 81.5473 351.432
lowerback -0.401222 -3.75507 0.979636
upperback -0.390187 -5.00893 -0.647126
thorax -0.317034 -2.50831 -1.20812
lowerneck -3.86823 4.28831 -5.36439
upperneck -8.45127 6.03275 0.968033
head -2.217 3.20179 1.15767
rclavicle 2.8917e-015 0
rhumerus -34.488 -14.902 -82.3023
rradius 23.628
rwrist 37.1376
rhand 12.6843 -20.5983
rfingers 7.12502
rthumb 37.6676 -46.4872
lclavicle 2.8917e-015 0
lhumerus -28.3364 20.4094 81.9506
lradius 27.8444
lwrist -21.975
lhand -9.24984 15.973
lfingers 7.12502
lthumb 16.7059 45.2741
rfemur -27.99 8.61672 15.4846
rtibia 24.6683
rfoot -5.79017 -2.58566
rtoes -14.2518
lfemur 21.0917 -7.3012 -19.6494
ltibia 0
lfoot -7.44071 26.9599
ltoes -27.9503
322
root -8.53331 17.3818 7.31562 -4.07845 81.6234 353.916
lowerback -0.588755 -3.78432 0.769638
upperback -0.317693 -5.04839 -0.555468
thorax -0.112729 -2.52593 -1.0164
lowerneck -3.93922 4.42079 -5.40906
upperneck -8.42392 6.2181 1.00204
head -2.20551 3.29492 1.17552
rclavicle -1.31384e-014 3.97569e-016
rhumerus -34.9505 -15.2367 -81.4715
rradius 23.5139
rwrist 36.959
rhand 12.7244 -20.7611
rfingers 7.12502
rthumb 37.7055 -46.6399
lclavicle -1.31384e-014 3.97569e-016
lhumerus -27.8979 20.3674 82.5479
lradius 27.4662
lwrist -22.7869
lhand -9.38599 15.8516
lfingers 7.12502
lthumb 16.5749 45.1638
rfemur -27.7812 9.00484 15.1166
rtibia 24.7211
rfoot -5.65591 -2.56772
rtoes -14.8187
lfemur 21.5382 -7.39094 -19.971
ltibia 9.54166e-015
lfoot -7.43727 26.9662
ltoes -28.1702
323
root -8.4015 17.3395 7.36414 -1.37226 81.7 356.588
lowerback -0.811825 -3.83216 0.72426
upperback -0.257301 -5.11295 -0.573015
thorax 0.0745798 -2.55697 -1.02879
lowerneck -4.10158 4.53319 -5.15515
upperneck -8.26209 6.36458 0.895782
head -2.11435 3.36017 1.10195
rclavicle 1.4943e-014 5.96354e-016
rhumerus -35.4792 -15.6643 -80.7959
rradius 23.5097
rwrist 37.1537
rhand 12.6052 -21.0628
rfingers 7.12502
rthumb 37.5929 -46.9716
lclavicle 1.4943e-014 5.96354e-016
lhumerus -27.4899 19.9154 83.1477
lradius 27.2779
lwrist -22.8247
lhand -9.58176 15.9662
lfingers 7.12502
lthumb 16.3864 45.294
rfemur -27.5338 9.32999 14.6878
rtibia 24.7296
rfoot -5.33473 -2.56465
rtoes -15.9776
lfemur 21.9592 -7.48127 -20.3712
ltibia 7.31528e-014
lfoot -7.09662 27.0085
ltoes -28.7807
324
root -8.26668 17.2893 7.41762 -0.391351 81.8279 357.626
lowerback -0.916399 -3.88343 0.827776
upperback -0.190577 -5.18355 -0.456983
thorax 0.201276 -2.59142 -0.979273
lowerneck -4.21524 4.66733 -5.16163
upperneck -8.11457 6.55507 0.997489
head -2.05735 3.45122 1.13773
rclavicle 1.67383e-014 3.77691e-015
rhumerus -36.043 -16.4157 -79.771
rradius 23.306
rwrist 38.3149
rhand 12.5753 -20.8668
rfingers 7.12502
rthumb 37.5646 -46.7831
lclavicle 1.67383e-014 3.77691e-015
lhumerus -27.1238 19.6777 83.8333
lradius 27.1704
lwrist -23.0277
lhand -9.90589 15.8112
lfingers 7.12502
lthumb 16.0743 45.1645
rfemur -27.0496 9.67457 14.5886
rtibia 24.7905
rfoot -4.89502 -3.01197
rtoes -16.6377
lfemur 22.5162 -7.65334 -20.4904
ltibia 9.54166e-015
lfoot -6.88144 27.0428
ltoes -29.1545
325
root -8.12773 17.2335 7.47452 0.406326 81.9494 358.465
lowerback -1.14313 -3.90157 1.01194
upperback 0.0349772 -5.21371 -0.28157
thorax 0.558219 -2.60327 -0.930501
lowerneck -4.77837 4.68736 -5.4109
upperneck -7.9315 6.63336 1.14693
head -1.91962 3.49636 1.24341
rclavicle 6.41018e-014 3.57812e-015
rhumerus -36.1923 -16.4157 -79.1755
rradius 23.2813
rwrist 38.2092
rhand 12.8355 -21.2022
rfingers 7.12502
rthumb 37.8105 -47.0528
lclavicle 6.41018e-014 3.57812e-015
lhumerus -26.3927 18.9401 84.9437
lradius 27.1597
lwrist -22.5633
lhand -10.2889 15.8298
lfingers 7.12502
lthumb 15.7054 45.2125
rfemur -26.5847 9.57316 14.6804
rtibia 25.0482
rfoot -4.42587 -2.79
rtoes -14.2164
lfemur 23.0812 -7.82404 -20.5675
ltibia 8.26944e-014
lfoot -6.58047 27.0541
ltoes -29.6418
326
root -7.98317 17.1968 7.53651 1.60196 82.0474 359.645
lowerback -1.35911 -3.9474 1.07983
upperback -0.0437425 -5.27784 -0.230663
thorax 0.595434 -2.63517 -0.929876
lowerneck -4.45739 4.85984 -5.06966
upperneck -7.81575 6.82871 1.13968
head -1.92963 3.5787 1.17431
rclavicle 4.91961e-014 -1.54058e-015
rhumerus -36.9626 -16.6861 -78.4781
rradius 23.1785
rwrist 38.6854
rhand 13.1164 -21.0862
rfingers 7.12502
rthumb 38.0758 -46.8648
lclavicle 4.91961e-014 -1.54058e-015
lhumerus -26.3878 18.0573 85.5348
lradius 27.3061
lwrist -22.0123
lhand -10.6169 15.9152
lfingers 7.12502
lthumb 15.3895 45.3224
rfemur -26.3273 9.98325 14.5916
rtibia 25.532
rfoot -4.49415 -3.26032
rtoes -13.4384
lfemur 23.5666 -7.97839 -20.6685
ltibia -3.18055e-015
lfoot -6.18688 27.0006
ltoes -30.2043
327
root -7.84323 17.1935 7.60059 2.77986 82.1441 360.655
lowerback -1.54697 -4.00406 1.16444
upperback -0.135653 -5.35698 -0.103949
thorax 0.60873 -2.67472 -0.859194
lowerneck -4.15909 5.04498 -4.84477
upperneck -7.97849 7.05009 1.03895
head -2.02795 3.68519 1.09155
rclavicle 8.68052e-015 -1.40392e-015
rhumerus -37.5535 -17.0289 -77.7391
rradius 22.9996
rwrist 39.5421
rhand 12.9441 -21.0486
rfingers 7.12502
rthumb 37.9131 -46.8714
lclavicle 8.68052e-015 -1.40392e-015
lhumerus -26.2714 17.3363 86.2809
lradius 27.5776
lwrist -21.4997
lhand -10.6616 15.6289
lfingers 7.12502
lthumb 15.3464 45.0394
rfemur -26.4081 10.1024 14.6294
rtibia 26.3743
rfoot -5.18968 -3.76823
rtoes -12.8216
lfemur 23.8084 -8.14583 -20.6846
ltibia 6.36111e-015
lfoot -5.65487 26.7273
ltoes -30.5421
328
root -7.70148 17.2263 7.67364 2.75426 82.1746 360.526
lowerback -1.6629 -4.04116 1.28323
upperback -0.160604 -5.41094 0.0889632
thorax 0.65435 -2.70105 -0.737485
lowerneck -3.91116 5.22182 -4.69156
upperneck -8.24843 7.27523 1.03202
head -2.16017 3.79647 1.04993
rclavicle 2.90148e-014 -1.78906e-015
rhumerus -38.0491 -17.5298 -76.9577
rradius 22.9255
rwrist 39.879
rhand 12.9968 -20.9969
rfingers 7.12502
rthumb 37.9628 -46.8063
lclavicle 2.90148e-014 -1.78906e-015
lhumerus -26.1315 16.364 87.1058
lradius 27.9535
lwrist -20.8236
lhand -10.9182 15.6675
lfingers 7.12502
lthumb 15.0993 45.0968
rfemur -26.4904 9.52352 15.242
rtibia 27.42
rfoot -5.72071 -3.03019
rtoes -14.0505
lfemur 24.0513 -8.25987 -20.4845
ltibia 3.18055e-015
lfoot -4.77329 26.3607
ltoes -31.0908
329
root -7.57255 17.2422 7.74226 3.34996 82.1647 361.021
lowerback -1.65039 -4.0656 1.2944
upperback -0.202875 -5.44381 0.241281
thorax 0.617112 -2.7178 -0.586639
lowerneck -3.72126 5.39849 -4.2785
upperneck -8.39073 7.48509 0.837266
head -2.21882 3.89388 0.908315
rclavicle 5.07118e-014 -1.98785e-016
rhumerus -38.4511 -18.0699 -76.2369
rradius 22.77
rwrist 40.137
rhand 12.8332 -21.1175
rfingers 7.12502
rthumb 37.8083 -46.9686
lclavicle 5.07118e-014 -1.98785e-016
lhumerus -26.0423 15.8184 87.7942
lradius 28.2838
lwrist -20.5823
lhand -11.296 15.598
lfingers 7.12502
lthumb 14.7354 45.0543
rfemur -26.6762 9.2977 15.6567
rtibia 28.4514
rfoot -6.33643 -2.80393
rtoes -15.4139
lfemur 24.2468 -8.32461 -20.4195
ltibia -9.54166e-015
lfoot -3.5578 25.9834
ltoes -31.6703
330
root -7.44646 17.2416 7.80423 3.57884 82.0988 361.211
lowerback -1.62478 -4.05582 1.4502
upperback -0.213441 -5.4332 0.3368
thorax 0.587016 -2.71226 -0.572438
lowerneck -3.61385 5.53401 -4.00875
upperneck -8.39351 7.671 1.05703
head -2.2421 3.97343 0.926839
rclavicle 4.19653e-014 -1.59028e-015
rhumerus -38.8282 -19.0703 -75.3634
rradius 22.4402
rwrist 41.1603
rhand 12.5924 -21.1311
rfingers 7.12502
rthumb 37.5808 -47.0432
lclavicle 4.19653e-014 -1.59028e-015
lhumerus -26.0478 15.5189 88.3216
lradius 28.6577
lwrist -21.0318
lhand -11.3888 15.4559
lfingers 7.12502
lthumb 14.6459 44.9187
rfemur -26.6779 9.74148 15.8684
rtibia 29.3108
rfoot -6.94412 -3.23212
rtoes -15.8359
lfemur 24.5487 -8.32209 -20.3605
ltibia 2.8625e-014
lfoot -2.25204 25.7193
ltoes -32.5983
